<svg width="87.23" height="51.98" xmlns="http://www.w3.org/2000/svg" viewBox="0 0 87.23 51.98"><defs><style>.cls-1{fill:#fff;}</style></defs><g id="Layer_2" data-name="Layer 2"><g id="Layer_2-2" data-name="Layer 2"><path class="cls-1" d="M32.63,36.26V25.88a.39.39,0,0,1,.38-.41h3.92a3.47,3.47,0,1,1,0,6.93H35.1a.24.24,0,0,0-.23.25v3.61Zm4.18-6.09a1.36,1.36,0,0,0,1-.34,1.37,1.37,0,0,0,0-1.77,1.44,1.44,0,0,0-1-.33H34.87v2.44Z"/><path class="cls-1" d="M42.83,36.26V25.47h2.24v8.22a.3.3,0,0,0,.29.31h4.73v2.26Z"/><path class="cls-1" d="M55.81,36.41a3.86,3.86,0,0,1-3.07-1.34,5.17,5.17,0,0,1-1.13-3.48V25.77a.28.28,0,0,1,.28-.3h2v6.12a2.91,2.91,0,0,0,.55,1.89,1.86,1.86,0,0,0,2.81,0,2.91,2.91,0,0,0,.55-1.89V25.47h2a.29.29,0,0,1,.28.3v5.82a5.16,5.16,0,0,1-1.14,3.47A3.84,3.84,0,0,1,55.81,36.41Z"/><path class="cls-1" d="M67.19,36.41a4.8,4.8,0,0,1-2-.44,5.19,5.19,0,0,1-1.63-1.19A5.4,5.4,0,0,1,62.45,33a6,6,0,0,1,0-4.32A5.53,5.53,0,0,1,63.53,27a5.19,5.19,0,0,1,1.63-1.19,4.72,4.72,0,0,1,2-.44,5.49,5.49,0,0,1,2.16.44,4.72,4.72,0,0,1,1.79,1.34l.24.29a.27.27,0,0,1,0,.36L70.13,29a.23.23,0,0,1-.36,0l-.27-.35a2.84,2.84,0,0,0-1-.78,3.16,3.16,0,0,0-1.31-.29,2.53,2.53,0,0,0-1.13.25,2.87,2.87,0,0,0-.91.67,3.22,3.22,0,0,0-.6,1,3.76,3.76,0,0,0,0,2.59,3.32,3.32,0,0,0,.62,1.05,2.63,2.63,0,0,0,2,.92,2.54,2.54,0,0,0,1-.19,2.61,2.61,0,0,0,.79-.55,2.91,2.91,0,0,0,.57-.83,2.08,2.08,0,0,0,.12-.32H67.08a.28.28,0,0,1-.28-.3V30.3a.31.31,0,0,1,.3-.32h5v1.09a6,6,0,0,1-.37,2.08,5.53,5.53,0,0,1-1,1.69A4.86,4.86,0,0,1,69.12,36,4.53,4.53,0,0,1,67.19,36.41Z"/><path class="cls-1" d="M74,36.26V25.92a.44.44,0,0,1,.42-.45h1.82V35.69a.56.56,0,0,1-.54.57Z"/><path class="cls-1" d="M86,36.26a1.14,1.14,0,0,1-1-.52l-4-6,0,6a.51.51,0,0,1-.14.36.47.47,0,0,1-.33.14H78.84V25.47h1.38a1.14,1.14,0,0,1,.94.52l3.89,5.85,0-6a.36.36,0,0,1,.12-.27.32.32,0,0,1,.24-.11h1.84V36.26Z"/><path class="cls-1" d="M.35,36.26A.35.35,0,0,1,0,35.89V25.47H2.24V34h5v2.26Z"/><path class="cls-1" d="M9.48,36.26a.43.43,0,0,1-.41-.44V25.47h1.78a.48.48,0,0,1,.46.49v10.3Z"/><path class="cls-1" d="M13.68,36.26V25.71a.23.23,0,0,1,.22-.24H21v2.25H16.09a.17.17,0,0,0-.17.18v1.71a.15.15,0,0,0,.15.15H19.4V32H16.13a.21.21,0,0,0-.21.22v4Z"/><path class="cls-1" d="M23.44,36.26a.39.39,0,0,1-.37-.4v-10a.39.39,0,0,1,.37-.4h7v2.25H25.31v2h3.53v2.24H25.31V34h5.14v2.25Z"/><path class="cls-1" d="M74,23.15a67.72,67.72,0,0,0-4.35-12c-2.53-5.23-5.2-8.22-7.7-8.65a3.47,3.47,0,0,0-.64-.06c-2.13,0-4.39,1.79-6.72,5.31-7.73,11.69-11.28,14.12-15.12,14.5-.27,0-.54,0-.81,0-4.64,0-9.35-3.78-15-9.46-2.22-2.24-4.16-3.38-5.75-3.38a3,3,0,0,0-1.05.18c-2,.74-3.28,3.68-4,6a36.45,36.45,0,0,0-1.43,7.49h0a.27.27,0,0,1-.28.24l-1.9-.14A.27.27,0,0,1,9,22.93H9A41.58,41.58,0,0,1,10.14,16c1.29-4.82,3.25-7.74,5.84-8.7A5.43,5.43,0,0,1,17.86,7c2.27,0,4.78,1.37,7.48,4.09,6.09,6.13,10.06,8.74,13.27,8.74a5.44,5.44,0,0,0,.57,0c4-.39,7.79-5,13.34-13.42C55.33,2.15,58.26,0,61.24,0a6.35,6.35,0,0,1,1.07.09c3.75.65,7.24,4.67,10.4,12A74.75,74.75,0,0,1,76.3,22.57h0a.26.26,0,0,1-.19.31l-1.84.46a.25.25,0,0,1-.32-.19Z"/><path class="cls-1" d="M16.06,52a5.73,5.73,0,0,1-4.35-1.87C8.4,46.55,9,38.94,9,38.62H9a.27.27,0,0,1,.29-.24l1.89.16a.27.27,0,0,1,.24.28h0c0,.07-.54,6.84,2.07,9.64a3.33,3.33,0,0,0,2.57,1.09h0c2,0,3.44-1.79,5.12-3.83,2.29-2.8,5.15-6.27,10.45-6.27a18.38,18.38,0,0,1,7.07,1.65c7.17,3,17.32,6.63,25,6.63a12.6,12.6,0,0,0,7-1.68c2.15-1.44,3.18-3.82,3.15-7.26h0a.25.25,0,0,1,.24-.26l1.9-.16a.26.26,0,0,1,.28.26h0c0,4.29-1.42,7.55-4.22,9.43-2.06,1.38-4.92,2.08-8.48,2.08-6.44,0-15.13-2.29-25.83-6.81a16,16,0,0,0-6.11-1.46c-4.18,0-6.42,2.74-8.6,5.38-2,2.42-3.85,4.7-7,4.72Z"/></g></g></svg>