<?xml version="1.0" encoding="UTF-8"?>
<svg xmlns="http://www.w3.org/2000/svg" xmlns:xlink="http://www.w3.org/1999/xlink" width="86px" height="96px" viewBox="0 0 86 96">
  <!-- Generator: Sketch 46.1 (44463) - http://www.bohemiancoding.com/sketch -->
  <title>clientlogos/starhub</title>
  <desc>Created with Sketch.</desc>
  <defs></defs>
  <g id="Review" stroke="none" stroke-width="1" fill="none" fill-rule="evenodd">
    <g id="Home" transform="translate(-870.000000, -1689.000000)" fill="#682712">
      <g id="Group-2" transform="translate(443.000000, 1527.000000)">
        <g id="Group" transform="translate(0.000000, 150.000000)">
          <g id="Atoms/clientlogos/starhub" transform="translate(325.000000, 0.000000)">
            <g id="clientlogos/starhub" transform="translate(102.000000, 12.000000)">
              <path d="M36.0070272,27.0935672 C28.9959017,28.4720433 18.3054137,31.5433899 18.1405503,34.1269406 C17.8908516,38.0435071 35.0365591,38.3137831 36.8362362,38.1141197 C36.8362362,38.1141197 14.7872818,70.0975867 17.2421168,73.8128666 C18.6761928,75.982779 29.3871977,66.9685356 38.3854272,58.09513 L36.0070272,27.0935672 Z M52.2108293,25.3178563 C52.246377,25.4711794 52.2649643,25.554404 52.2649643,25.554404 C52.2649643,25.554404 71.172613,23.9311249 72.3243581,27.3968257 C73.6928835,31.5171137 56.8474567,37.4144865 56.8474567,37.4144865 C56.8474567,37.4144865 67.6234395,67.2795743 63.9815323,69.0136421 C61.9279031,69.9911511 54.4483114,58.9730618 50.3513074,52.6126273 L52.2108293,25.3178563 Z" id="Fill-2"></path>
              <path d="M52.2108293,25.3178563 L53.5917393,5.04833148 L34.0016344,0.954015913 L36.0070272,27.0935672 C37.9075866,26.7198932 39.5377751,26.4706165 40.6146346,26.3891752 C40.6146346,26.3891752 43.2854469,13.1480881 46.3833965,12.2061804 C48.8910765,11.4428673 51.7824536,23.4702043 52.2108293,25.3178563 Z M50.3513074,52.6126273 L49.1369064,70.4380695 L39.9574695,78.5861186 L38.3854272,58.09513 C41.9665785,54.5636566 45.2764411,51.0544907 47.6222551,48.281528 C47.6222551,48.281528 48.7179786,50.0769498 50.3513074,52.6126273 Z" id="Fill-11"></path>
              <g id="Group-8" transform="translate(0.155422, 80.955071)">
                <path d="M0,13.3598097 L0.0461661523,11.2621273 C1.52187725,12.3809724 3.19188762,13.0351539 5.37494446,12.9994417 C6.13969681,12.9864555 6.69168341,12.9146254 7.31954308,12.7437753 C7.94740275,12.5676495 8.43034085,12.3168529 8.76916026,11.9921971 C9.11560713,11.6671354 9.30549052,11.3148839 9.33840899,10.9354424 C9.37694769,10.4890407 9.20914377,10.2483896 8.80970619,9.8632666 C8.41026861,9.47246217 7.60938623,8.97898534 6.45723965,8.51107516 L4.0590084,7.53183208 C1.91368737,6.64552172 0.881572786,5.43820793 0.99558311,4.12213445 C1.07908363,3.15871834 1.64271213,2.34951374 2.6880744,1.69411482 C3.741867,1.03384607 5.32235519,0.703508789 7.43034185,0.703508789 C8.78602094,0.703508789 10.7486846,1.01964238 11.9923606,1.28383105 L11.9301366,2.85881754 C11.0337104,2.4452872 9.2103481,1.93638922 7.88718603,1.93638922 C6.83339343,1.93638922 5.9899579,1.93557758 5.30429017,2.3097434 C4.6262499,2.68431504 4.26454814,3.13518079 4.21918487,3.66396394 C4.17382161,4.18706561 4.38498158,4.62169858 4.85346766,4.96826865 C5.3215523,5.31565037 9.72098589,7.19865406 9.72098589,7.19865406 C11.6234328,7.95144971 12.7354349,9.37993527 12.5551862,10.6704421 C12.4074545,11.7284142 11.6691975,12.7076573 10.516248,13.2668769 C9.31552664,13.8496341 7.48895279,14.2424676 5.49015912,14.2875136 C4.35326744,14.3134861 3.3207514,14.1994507 2.58289586,14.0598487 C1.48936022,13.852069 0.830187851,13.6402311 0,13.3598097" id="Fill-6"></path>
              </g>
              <path d="M35.3589193,94.8546212 L36.1569916,85.630338 L38.7728059,85.630338 L38.5985788,87.645639 C39.2790278,86.6217557 40.2950846,85.9553997 41.6776605,85.4558355 C42.3677441,85.2066622 43.5154748,85.0601613 43.5154748,85.0601613 L43.29187,86.9013655 C43.29187,86.9013655 42.5223003,87.0336628 42.0465883,87.1813812 C40.4536553,87.6756696 39.2922755,88.5928223 38.4384024,89.4949596 L37.9747336,94.8546212 L35.3589193,94.8546212" id="Fill-9"></path>
              <g id="Group-15" transform="translate(20.713825, 81.827233)">
                <path d="M50.8815091,3.8031052 L50.0826339,13.0273884 L47.3885378,13.0273884 L47.5639692,11.0043769 C46.7630868,11.7640714 45.896769,12.3334366 44.965417,12.7136897 C44.0340651,13.0931312 42.703677,13.2834606 41.8048421,13.2834606 C41.0043612,13.2834606 40.2817605,13.1402063 39.6370402,12.8541033 C39.0003487,12.5623189 38.5712042,12.1824716 38.3512125,11.7141556 C38.1304178,11.2409698 38.0794343,10.3213822 38.1974591,8.95620452 L38.6430628,3.8031052 L41.3375603,3.8031052 L40.8750959,9.14612817 C40.7980185,10.0324385 40.809259,10.6188481 40.9068101,10.904951 C41.0131929,11.1853725 41.2259587,11.4170955 41.5455087,11.598497 C41.8726863,11.7803042 42.2323808,11.8712079 42.6241909,11.8712079 C43.4246719,11.8712079 44.3042374,11.6183821 45.2628876,11.1115133 C46.230771,10.5993687 47.0501199,9.95533277 47.721737,9.17899957 L48.187413,3.8031052 L50.8815091,3.8031052" id="Fill-10"></path>
                <path d="M55.3170727,7.701004 L54.9746403,11.6561234 C55.7871646,11.7997836 56.5406765,11.8712079 57.2355774,11.8712079 C58.6153432,11.8712079 59.8068314,11.5075934 60.8096405,10.781176 C61.8204785,10.0486713 62.380494,9.04954306 62.4904899,7.78338541 C62.5703774,6.86460947 62.3724651,6.17390424 61.8979573,5.71086389 C61.4230481,5.24822937 60.8590182,5.01731792 60.2058675,5.01731792 C59.4953102,5.01731792 58.6896105,5.25959232 57.7903741,5.7437353 C56.8983638,6.22828409 56.0741976,6.88084226 55.3170727,7.701004 L55.3170727,7.701004 Z M55.4748405,5.87603254 C56.2440087,5.10538081 57.1789737,4.4418655 58.2110883,4.04091558 C59.2432029,3.63955984 60.1781678,3.43908488 61.016786,3.43908488 C62.1898077,3.43908488 63.2163021,3.78078511 64.0962691,4.46459141 C64.9754332,5.14799189 65.3547985,6.18445556 65.2347665,7.57398242 C65.1400256,8.66969577 64.7409894,9.64975049 64.0376581,10.5137408 C63.3431586,11.3724554 62.4543598,12.0534209 61.3716632,12.5558258 C60.2889666,13.0533608 58.9814608,13.3013167 57.4475403,13.3013167 C57.0111698,13.3013167 57.0288333,13.2493718 56.1291955,13.1872813 C55.9955144,13.1779475 54.9132192,13.0273884 54.1496712,13.0273884 L52.1617165,13.0273884 L53.27131,0.211194501 L55.965406,0.211194501 L55.4748405,5.87603254 L55.4748405,5.87603254 Z" id="Fill-12"></path>
                <polyline id="Fill-13" points="23.4238889 13.0273884 24.5330809 0.211194501 27.3452018 0.211194501 26.8678839 5.72750251 33.5571586 5.72750251 34.0348779 0.211194501 36.8413786 0.211194501 35.7317851 13.0273884 32.9252845 13.0273884 33.4463599 7.00745803 26.7566837 7.00745803 26.2356083 13.0273884 23.4238889 13.0273884"></polyline>
                <path d="M9.9795025,9.12989538 L10.3219349,5.17437017 C9.52546843,5.0311158 8.77998543,4.9592857 8.08588737,4.9592857 C6.68083056,4.9592857 5.4768976,5.32574094 4.47408848,6.05743397 C3.4797097,6.78993864 2.9277231,7.78622615 2.81853011,9.04710815 C2.73984693,9.96142007 2.93294188,10.6517195 3.3990193,11.1200355 C3.87352705,11.5822642 4.437557,11.8135815 5.09151058,11.8135815 C5.80206788,11.8135815 6.60696471,11.5713071 7.50660252,11.0867583 C8.40624032,10.6026153 9.2304065,9.94965129 9.9795025,9.12989538 L9.9795025,9.12989538 Z M9.82173469,10.954461 C9.0601939,11.7251127 8.12964485,12.4482836 7.09552304,12.8467986 C6.06943012,13.2453136 5.13968396,13.4445711 4.30628455,13.4449769 C3.1400874,13.4449769 2.11961471,13.1053058 1.24526793,12.4255577 C0.379351495,11.7462154 0.00600782911,10.715839 0.125236935,9.33442854 C0.219576464,8.2452083 0.612189481,7.27367579 1.30267454,6.41983102 C1.9931596,5.56071058 2.87673961,4.88461486 3.95301313,4.38992057 C5.02928664,3.89076227 6.40824954,3.6716196 7.90322998,3.67121378 C8.33598748,3.67121378 8.98713095,3.70165026 9.85625894,3.76171159 C9.98552417,3.77348036 10.1806263,3.78687241 10.4407626,3.8031052 L13.1637627,3.8031052 L12.365289,13.0273884 L9.65473365,13.0273884 L9.82815781,11.0193922 C9.82494625,10.9986954 9.82253758,10.9771869 9.82173469,10.954461 L9.82173469,10.954461 Z" id="Fill-14"></path>
              </g>
              <path d="M22.7659973,94.4828903 C21.6692501,94.7856318 20.8776009,94.9645984 20.3914513,95.0197898 C19.9036958,95.0798512 19.4356112,95.1102876 18.9863945,95.1106935 C18.0309558,95.1106935 16.804542,94.9865126 16.033768,94.7389626 C15.2625925,94.4910067 14.6937452,94.1253631 14.3276275,93.6408143 C13.9687359,93.1566713 13.8338504,92.407528 13.9213654,91.3946019 L14.7246565,82.0384273 L17.3669661,82.0384273 L17.0550435,85.6465708 L20.822603,85.6465708 L20.7118042,86.9265264 L16.9454491,86.9265264 L16.5656823,91.3694411 C16.5014511,92.1129029 16.586156,92.6388453 16.8210012,92.9472683 C17.0562479,93.249604 17.3842283,93.4728049 17.8049424,93.6160593 C18.233284,93.7589078 18.745929,93.8307379 19.3420746,93.8307379 C20.4452449,93.8307379 21.6250912,93.5969858 22.8832192,93.1286698 L22.7659973,94.4828903" id="Fill-16"></path>
            </g>
          </g>
        </g>
      </g>
    </g>
  </g>
</svg>
